<?xml version="1.0" encoding="utf-8"?>
<!-- Generator: Adobe Illustrator 25.4.1, SVG Export Plug-In . SVG Version: 6.00 Build 0)  -->
<svg version="1.1" id="Layer_1" xmlns="http://www.w3.org/2000/svg" xmlns:xlink="http://www.w3.org/1999/xlink" x="0px" y="0px"
	 viewBox="0 0 232.1 47" style="enable-background:new 0 0 232.1 47;" xml:space="preserve">
<style type="text/css">
	.st0{fill:#FFFFFF;}
</style>
<desc>Created with Sketch.</desc>
<g>
	<path class="st0" d="M1.9,43.8l16.3-32.1H4V2.3h29.8v1.3l-16,32.1h15.3v9.5H1.9V43.8z"/>
	<path class="st0" d="M70.1,2.3h11.1v42.9H70.1V2.3z"/>
	<path class="st0" d="M118.2,24v-0.5c0-13.1,8.8-21.8,20.3-21.8c11.7,0,20.3,8.2,20.3,21.5v0.5c0,13.2-8.1,22.2-20.5,22.2
		C126,45.9,118.2,36.9,118.2,24z M147.4,23.9v-0.5c0-7.6-3.4-12.1-8.9-12.1s-8.8,4.4-8.8,12.2V24c0,7.8,3.5,12.3,8.9,12.3
		C144,36.3,147.4,31.6,147.4,23.9z"/>
	<path class="st0" d="M196,2.3h12.4l12.3,24.2V2.3h9.6v42.9h-10.6l-14-26.9v26.9H196V2.3z"/>
</g>
</svg>
